<?xml version="1.0" encoding="utf-8"?>
<!-- Generator: Adobe Illustrator 25.2.0, SVG Export Plug-In . SVG Version: 6.00 Build 0)  -->
<svg version="1.1" id="Layer_1" xmlns="http://www.w3.org/2000/svg" xmlns:xlink="http://www.w3.org/1999/xlink" x="0px" y="0px"
	 viewBox="0 0 1080 1080" style="enable-background:new 0 0 1080 1080;" xml:space="preserve">
<style type="text/css">
	.st0{fill:#FFFFFF;}
	.st1{fill:#C51D2A;}
</style>
<g>
	<path class="st0" d="M541.67,893.35c-225.48,0-391.57-68.24-452.52-97.57c-21.83-10.5-35.94-32.86-35.94-56.96V492.74
		c0-24.12,14.11-46.47,35.94-56.98c41.06-19.77,126.46-55.62,244.28-77.95c23.36-95.24,109.19-163.22,208.24-163.22
		s184.88,67.98,208.24,163.22c117.82,22.33,203.22,58.19,244.26,77.95c21.84,10.5,35.96,32.86,35.96,56.98v246.07
		c0,24.1-14.11,46.46-35.94,56.96C933.23,825.11,767.15,893.35,541.67,893.35z"/>
</g>
<path class="st1" d="M987.08,450.51c-41.48-19.96-129.6-56.83-250.86-78.58c-17.43-91.64-97.84-160.96-194.56-160.96
	s-177.13,69.32-194.56,160.96c-121.26,21.76-209.38,58.63-250.86,78.58c-16.27,7.83-26.67,24.17-26.67,42.23v246.07
	c0,18.06,10.4,34.4,26.67,42.23c61.25,29.47,223.95,95.94,445.42,95.94s384.16-66.46,445.42-95.94
	c16.27-7.83,26.67-24.17,26.67-42.23V492.74C1013.75,474.68,1003.35,458.34,987.08,450.51z"/>
<g>
	<path class="st0" d="M232.87,566.73c-11.22-0.23-21.81,2.41-31.11,7.24c-3.66,1.91-8.02-0.85-8.02-5.01v-59.72
		c0-3.1-2.48-5.61-5.54-5.61h-37.46c-3.06,0-5.54,2.51-5.54,5.61v201.99c0,9.29,7.44,16.83,16.63,16.83l40.53,0.02
		c50.42,0,91.59-40.02,94.19-90.38C298.47,600.1,270.06,567.5,232.87,566.73z M247.57,644.41c-1.93,25.78-23.22,46.09-49.19,46.09
		h-1.9c-1.53,0-2.77-1.26-2.77-2.81v-60.84c0-11.55,9.32-21.02,20.73-20.75c0.17,0,0.34,0.01,0.51,0.02
		C234.53,606.86,249.06,624.64,247.57,644.41z"/>
	<path class="st0" d="M444.12,566.7l-40.53-0.02c-50.42,0-91.59,40.03-94.19,90.39c-1.93,37.53,26.54,70.2,63.67,70.96
		c12.3,0.25,23.84-2.94,33.74-8.7c2.37-1.38,5.32,0.28,5.38,3.02c0.07,3.1,2.29,5.7,5.36,5.7h37.65c3.06,0,5.54-2.51,5.54-5.61
		V583.53C460.74,574.24,453.3,566.7,444.12,566.7z M391.46,690.45c-0.17,0-0.34-0.01-0.51-0.02c-19.58-0.74-34.11-18.52-32.63-38.29
		c1.93-25.78,23.22-46.09,49.19-46.09h1.9c1.53,0,2.77,1.26,2.77,2.81v60.84C412.19,681.24,402.87,690.71,391.46,690.45z"/>
	<path class="st0" d="M808.39,566.73c-11.22-0.23-21.81,2.41-31.11,7.24c-3.66,1.91-8.02-0.85-8.02-5.01v-59.72
		c0-3.1-2.48-5.61-5.54-5.61h-37.46c-3.06,0-5.54,2.51-5.54,5.61v201.99c0,9.29,7.44,16.83,16.63,16.83l40.53,0.02
		c50.42,0,91.59-40.02,94.19-90.38C874,600.1,845.59,567.5,808.39,566.73z M823.14,644.41c-1.93,25.78-23.22,46.09-49.19,46.09h-1.9
		c-1.53,0-2.77-1.26-2.77-2.81v-60.84c0-11.55,9.32-21.02,20.73-20.75c0.17,0,0.34,0.01,0.51,0.02
		C810.09,606.86,824.62,624.64,823.14,644.41z"/>
	<g>
		<path class="st0" d="M912.69,555.22c14.06,0,25.46-11.53,25.46-25.76c0-14.23-11.4-25.76-25.46-25.76
			c-14.06,0-25.46,11.53-25.46,25.76C887.23,543.69,898.63,555.22,912.69,555.22z"/>
		<path class="st0" d="M931.4,569.55h-37.43c-3.06,0-5.54,2.51-5.54,5.61v147.28c0,3.1,2.48,5.61,5.54,5.61h37.43
			c3.06,0,5.54-2.51,5.54-5.61V575.16C936.95,572.06,934.46,569.55,931.4,569.55z"/>
	</g>
	<path class="st0" d="M652.06,563.95c-16.21-0.25-30.69,7.21-40.12,18.99c-2.24,2.79-6.41,2.84-8.65,0.04
		c-9.27-11.61-23.45-19.04-39.36-19.04c-11.85,0-22.75,4.12-31.37,11.02c-2.13,1.71-5.24,0.26-5.36-2.45
		c-0.14-3.16-2.42-5.77-5.55-5.77h-37.43c-3.06,0-5.54,2.51-5.54,5.61v150.09c0,3.1,2.48,5.61,5.54,5.61h37.43
		c3.06,0,5.54-2.51,5.54-5.61v-96.15c0-10.57,8.03-19.67,18.47-20.17c11.14-0.53,20.34,8.45,20.34,19.61v96.71
		c0,3.1,2.48,5.61,5.54,5.61h37.43c3.06,0,5.55-2.51,5.55-5.61v-96.15c0-10.57,8.03-19.67,18.47-20.17
		c11.14-0.53,20.34,8.45,20.34,19.61v96.71c0,3.1,2.48,5.61,5.55,5.61h37.43c3.06,0,5.54-2.51,5.54-5.61v-106.3
		C701.87,588.01,679.86,564.38,652.06,563.95z"/>
</g>
<path class="st0" d="M475.6,368.28c-6.75,14.77,11.09,32.32,10.01,40.02c-1.09,7.71-13.55,3.42-13.55,3.42s-6.61,25.41-5.24,47.57
	c2.3,36.88-2.07,61.5-5.06,73.38c-1.06,4.2,2.11,8.27,6.44,8.27h0.01c2.93,0,5.5-1.92,6.36-4.73c8.38-27.23,6.34-72.24,8.72-88.05
	c2.52-16.76,16.91-23.55,26.81-30.77c9.9-7.22,7.57-16.12,7.57-16.12c5.47,2.27,12.56,3.17,12.56,3.17
	c0.97,7.52,2.8,14.79,5.69,25.41c2.49,9.19,21.45,85.56,26.53,106.05c0.73,2.96,3.39,5.04,6.45,5.04h0.81
	c4.42,0,7.61-4.23,6.38-8.47c-11.2-38.89-21.63-91.31-22.6-97.29c-1.03-6.43,0.78-16.73,9.74-29.14
	c8.96-12.41,15.39-11.6,22.67-31.39c7.75-21.06,5.28-49.46,8.71-54.99c3.43-5.53,6.66-6.94,19.7-8.88
	c12.17-1.81,13.22-15.94,13.23-16.5c0.01-0.56,0.61-4.59-5.35-4.05c-5.96,0.54-8.47-0.42-12.08-2.5
	c-3.61-2.08-4.24-11.83-4.42-13.19c-0.18-1.37-0.47-13.56-14.41-19.62c-13.94-6.05-24.49-2.32-24.49-2.32
	c-3.88-18.71-28.41-17.5-34.88-22.62c-0.01,10.99-10.53,33.74,11.99,43.97c-1.08,1.8-7.6,21.08,8,32.39
	c15.6,11.31,19.75,26.97,10.33,41.4c-9.42,14.43-24.95,5.63-47.58,4.75c-22.63-0.88-34.02,9.32-34.02,9.32
	c-3.77-1.84-1.55-7.35-7.17-12.77c-5.29-5.11-16.58-2.62-17.68-2.33C463.62,353.22,461.05,367.25,475.6,368.28z"/>
<g>
	<path class="st0" d="M254.88,775.98c0,0,44.9,9.91,90.46,16.07c45.48,6.53,91.32,9.27,91.32,9.27c4.79,0.29,8.42,4.19,8.12,8.71
		c-0.3,4.53-4.43,7.96-9.21,7.68c-0.12-0.01-0.35-0.03-0.47-0.04c0,0-46.35-4.79-91.97-13.38c-45.69-8.21-90.38-20.15-90.38-20.15
		c-2.38-0.59-3.8-2.89-3.17-5.14C250.17,776.82,252.57,775.51,254.88,775.98z"/>
	<path class="st0" d="M828.45,775.98c0,0-44.9,9.91-90.46,16.07c-45.48,6.53-91.32,9.27-91.32,9.27c-4.79,0.29-8.42,4.19-8.12,8.71
		c0.3,4.53,4.43,7.96,9.21,7.68c0.12-0.01,0.35-0.03,0.47-0.04c0,0,46.35-4.79,91.97-13.38c45.69-8.21,90.38-20.15,90.38-20.15
		c2.38-0.59,3.8-2.89,3.17-5.14C833.16,776.82,830.76,775.51,828.45,775.98z"/>
</g>
<g>
	<path class="st0" d="M828.45,456.95c0,0-44.9-9.91-90.46-16.07c-45.48-6.53-91.32-9.27-91.32-9.27c-4.79-0.29-8.42-4.19-8.12-8.71
		c0.3-4.53,4.43-7.96,9.21-7.68c0.12,0.01,0.35,0.03,0.47,0.04c0,0,46.35,4.79,91.97,13.38c45.69,8.21,90.38,20.15,90.38,20.15
		c2.38,0.59,3.8,2.89,3.17,5.14C833.16,456.1,830.76,457.41,828.45,456.95z"/>
	<path class="st0" d="M254.88,456.95c0,0,44.9-9.91,90.46-16.07c45.48-6.53,91.32-9.27,91.32-9.27c4.79-0.29,8.42-4.19,8.12-8.71
		c-0.3-4.53-4.43-7.96-9.21-7.68c-0.12,0.01-0.35,0.03-0.47,0.04c0,0-46.35,4.79-91.97,13.38c-45.69,8.21-90.38,20.15-90.38,20.15
		c-2.38,0.59-3.8,2.89-3.17,5.14C250.17,456.1,252.57,457.41,254.88,456.95z"/>
</g>
<g>
	<path class="st0" d="M469.65,781.82c8.33,0,10.19-4.02,11.85-8.62h7.25v68.58h-10.78v-52.31h-8.33V781.82z"/>
	<path class="st0" d="M531.6,824.73c0,11.56-5.29,17.83-16.46,17.83c-10.59,0-16.06-6.27-16.06-17.24v-1.76h10.19v2.45
		c0,4.9,2.15,6.76,5.58,6.76c3.82,0,5.97-1.86,5.97-8.42V811.8c-1.86,3.92-5.19,6.07-9.99,6.07c-7.93,0-11.95-5.58-11.95-15.67
		v-12.54c0-10.97,5.78-17.24,16.36-17.24c10.59,0,16.36,6.27,16.36,17.24V824.73z M520.83,801.32v-12.35c0-4.9-2.15-6.66-5.58-6.66
		s-5.58,1.76-5.58,6.66v12.35c0,4.9,2.15,6.76,5.58,6.76S520.83,806.22,520.83,801.32z"/>
	<path class="st0" d="M541.93,790.25c0-11.56,5.29-17.83,16.46-17.83c10.58,0,16.07,6.27,16.07,17.24v1.76h-10.19v-2.45
		c0-4.9-2.15-6.76-5.58-6.76c-3.82,0-5.97,1.86-5.97,8.42v12.54c1.87-3.92,5.19-6.07,9.99-6.07c7.94,0,11.95,5.58,11.95,15.67v12.54
		c0,10.97-5.78,17.24-16.36,17.24c-10.58,0-16.36-6.27-16.36-17.24V790.25z M552.7,813.66v12.35c0,4.9,2.15,6.66,5.58,6.66
		c3.43,0,5.58-1.76,5.58-6.66v-12.35c0-4.9-2.15-6.76-5.58-6.76C554.86,806.9,552.7,808.76,552.7,813.66z"/>
	<path class="st0" d="M613.68,773.2v9.4l-15.87,59.17h-10.78L602.81,783h-21.46v-9.8H613.68z"/>
</g>
<g>
</g>
<g>
</g>
<g>
</g>
<g>
</g>
<g>
</g>
<g>
</g>
</svg>
