<?xml version="1.0" encoding="UTF-8" standalone="no"?>
<!DOCTYPE svg PUBLIC "-//W3C//DTD SVG 1.1//EN" "http://www.w3.org/Graphics/SVG/1.1/DTD/svg11.dtd">
<svg width="100%" height="100%" viewBox="0 0 1134 756" version="1.1" xmlns="http://www.w3.org/2000/svg" xmlns:xlink="http://www.w3.org/1999/xlink" xml:space="preserve" xmlns:serif="http://www.serif.com/" style="fill-rule:evenodd;clip-rule:evenodd;stroke-linejoin:round;stroke-miterlimit:2;">
    <g id="Layer-1" serif:id="Layer 1" transform="matrix(4.16667,0,0,4.16667,0,0)">
        <g transform="matrix(1,0,0,1,244.147,83.6206)">
            <path d="M0,18.38L-19.644,18.38L-19.644,51.645L-52.908,51.645L-52.908,72.551L-72.552,72.551L-72.552,51.645L-105.816,51.645L-105.816,18.38L-126.723,18.38L-126.723,-1.263L-105.816,-1.263L-105.816,-34.528L-72.552,-34.528L-72.552,-54.171L0,-54.171L0,18.38Z" style="fill:white;fill-rule:nonzero;"/>
        </g>
        <g transform="matrix(1,0,0,1,19.6299,99.3572)">
            <path d="M0,-15.443L10.834,-13.347L10.834,-23.224L20.353,-21.369L20.353,-11.493L27.775,-10.056C31.126,-9.399 32.263,-10.535 32.263,-13.887L32.263,-19.035L42.5,-17.061L42.5,-9.158C42.5,-1.017 39.027,3.831 30.408,2.096L20.353,0.179L20.353,7.781L10.834,5.867L10.834,-1.676L0,-3.772L0,-15.443Z" style="fill:white;fill-rule:nonzero;"/>
        </g>
        <g transform="matrix(1,0,0,1,47.8828,110.02)">
            <path d="M0,33.341C-11.013,33.341 -18.257,25.56 -18.257,15.562C-18.257,4.191 -11.373,0.3 -5.805,0L-5.805,11.314C-6.764,11.613 -8.201,12.869 -8.201,15.562C-8.201,19.574 -4.609,21.668 -0.599,21.668C2.754,21.668 5.029,19.992 5.029,17.061C5.029,14.426 3.532,13.051 2.754,12.571L2.754,1.377C8.32,2.334 15.085,7.303 15.085,17.061C15.085,26.818 9.457,33.341 0,33.341" style="fill:white;fill-rule:nonzero;"/>
        </g>
        <g transform="matrix(1,0,0,1,73.6821,38.0554)">
            <path d="M0,40.643L-43.218,32.203L-43.218,20.591L-39.027,21.429C-41.123,19.992 -43.815,17.119 -43.815,12.331C-43.815,5.148 -38.369,0 -29.27,0C-18.078,0 -10.953,7.363 -10.953,15.982C-10.953,21.61 -13.469,24.603 -15.743,26.098L0,29.21L0,40.643Z" style="fill:white;fill-rule:nonzero;"/>
        </g>
        <g transform="matrix(1,0,0,1,244.147,79.4156)">
            <path d="M0,22.585L-19.644,22.585L-19.644,55.85L-52.908,55.85L-52.908,76.756L-72.552,76.756L-72.552,55.85L-105.816,55.85L-105.816,22.585L-126.723,22.585L-126.723,2.942L-105.816,2.942L-105.816,-30.323L-72.552,-30.323L-72.552,-49.966L0,-49.966L0,22.585ZM-153.439,102.001L27.978,102.001L27.978,-79.416L-153.439,-79.416L-153.439,102.001Z" style="fill:rgb(147,193,61);fill-rule:nonzero;"/>
        </g>
        <g transform="matrix(1,0,0,1,73.6821,102.717)">
            <path d="M0,-24.019L-43.218,-32.459L-43.218,-44.071L-39.027,-43.233C-41.123,-44.67 -43.815,-47.543 -43.815,-52.331C-43.815,-59.514 -38.369,-64.662 -29.27,-64.662C-18.078,-64.662 -10.953,-57.299 -10.953,-48.68C-10.953,-43.052 -13.469,-40.059 -15.743,-38.564L0,-35.452L0,-24.019ZM-25.799,40.644C-36.813,40.644 -44.056,32.862 -44.056,22.864C-44.056,11.493 -37.172,7.603 -31.604,7.303L-31.604,18.616C-32.563,18.916 -34,20.172 -34,22.864C-34,26.877 -30.408,28.971 -26.398,28.971C-23.045,28.971 -20.771,27.295 -20.771,24.363C-20.771,21.729 -22.267,20.354 -23.045,19.874L-23.045,8.68C-17.479,9.637 -10.714,14.606 -10.714,24.363C-10.714,34.12 -16.342,40.644 -25.799,40.644M-54.052,-18.803L-43.218,-16.707L-43.218,-26.584L-33.7,-24.729L-33.7,-14.853L-26.277,-13.416C-22.926,-12.759 -21.789,-13.895 -21.789,-17.247L-21.789,-22.395L-11.552,-20.421L-11.552,-12.519C-11.552,-4.377 -15.025,0.471 -23.644,-1.265L-33.7,-3.181L-33.7,4.421L-43.218,2.507L-43.218,-5.036L-54.052,-7.132L-54.052,-18.803ZM-73.682,78.699L17.026,78.699L17.026,-102.718L-73.682,-102.718L-73.682,78.699Z" style="fill:rgb(241,90,41);fill-rule:nonzero;"/>
        </g>
        <g transform="matrix(-0.991442,0.130544,0.130544,0.991442,47.899,61.7226)">
            <path d="M0.808,-12.326C4.19,-12.771 6.839,-11.006 7.284,-7.623C7.823,-3.529 4.665,-0.455 0.808,0.053C-2.576,0.499 -5.223,-1.267 -5.668,-4.651C-6.207,-8.744 -3.05,-11.818 0.808,-12.326" style="fill:rgb(241,90,41);fill-rule:nonzero;"/>
        </g>
        <g transform="matrix(1,0,0,1,170.645,102.001)">
            <path d="M0,-19.643L53.858,-19.643L53.858,-52.908L-32.314,-52.908L-32.314,33.265L53.858,33.265L53.858,0L0,0L0,-19.643Z" style="fill:rgb(0,108,58);fill-rule:nonzero;"/>
        </g>
    </g>
</svg>
