<?xml version="1.0" encoding="UTF-8" standalone="no"?>
<!DOCTYPE svg PUBLIC "-//W3C//DTD SVG 1.1//EN" "http://www.w3.org/Graphics/SVG/1.1/DTD/svg11.dtd">
<svg width="100%" height="100%" viewBox="0 0 1189 381" version="1.1" xmlns="http://www.w3.org/2000/svg" xmlns:xlink="http://www.w3.org/1999/xlink" xml:space="preserve" xmlns:serif="http://www.serif.com/" style="fill-rule:evenodd;clip-rule:evenodd;stroke-linejoin:round;stroke-miterlimit:2;">
    <g transform="matrix(1,0,0,1,-405.888,-809.747)">
        <g transform="matrix(1.4522,0,0,1.4522,256.565,278.196)">
            <g transform="matrix(1,0,0,1,649.409,365.339)">
                <path d="M0,124.852C-3.082,124.32 -5.312,122.177 -7.775,120.567C-49.676,93.176 -91.557,65.759 -133.347,38.202C-136.456,36.151 -138.489,36.154 -141.599,38.201C-184.663,66.544 -227.828,94.735 -270.97,122.96C-272.208,123.771 -273.309,124.878 -274.946,124.855C-284.981,119.632 -294.092,112.954 -303.5,106.745C-281.852,92.751 -260.192,78.775 -238.559,64.758C-206.735,44.138 -174.878,23.569 -143.182,2.751C-138.953,-0.026 -135.954,0.034 -131.774,2.764C-84.432,33.689 -36.973,64.437 10.466,95.216C16.463,99.107 22.521,102.905 28.552,106.745C19.146,112.956 10.035,119.631 0,124.852" style="fill:rgb(204,204,204);"/>
            </g>
            <g transform="matrix(1,0,0,1,345.909,517.853)">
                <path d="M0,-45.768C9.408,-39.559 18.52,-32.881 28.555,-27.658C31.936,-24.117 36.361,-22.056 40.363,-19.416C51.415,-12.124 62.569,-4.987 74.989,3.056C62.609,3.056 51.719,3.139 40.833,2.959C39.351,2.935 37.823,1.707 36.43,0.853C4.123,-19.006 -28.181,-38.87 -60.437,-58.811C-62.781,-60.259 -64.43,-60.68 -66.968,-58.87C-103.958,-32.479 -141.04,-6.219 -178.098,20.077C-178.615,20.444 -179.081,20.883 -180.522,22.077L-171.911,22.077C-159.582,22.077 -147.253,22.141 -134.925,22.027C-132.226,22.003 -130.304,22.581 -128.605,24.915C-124.811,30.126 -120.677,35.091 -116.24,40.716L-242.242,40.716C-240.614,39.509 -239.525,38.671 -238.407,37.874C-219.154,24.162 -199.939,10.396 -180.598,-3.188C-177.831,-5.132 -176.824,-7.167 -176.854,-10.524C-177.019,-29.016 -176.844,-47.511 -177.009,-66.003C-177.042,-69.646 -176.476,-71.193 -172.277,-71.027C-162.962,-70.656 -153.618,-70.756 -144.294,-70.993C-140.906,-71.08 -139.726,-70.351 -139.837,-66.71C-140.12,-57.389 -139.96,-48.053 -139.903,-38.723C-139.893,-37.142 -140.381,-35.466 -139.451,-33.843C-137.474,-34.14 -136.245,-35.574 -134.82,-36.583C-112.409,-52.457 -89.977,-68.3 -67.697,-84.357C-64.746,-86.484 -62.86,-86.312 -59.966,-84.424C-40.048,-71.43 -20.003,-58.631 0,-45.768" style="fill:rgb(218,3,3);"/>
            </g>
            <g transform="matrix(1,0,0,1,649.409,499.707)">
                <path d="M0,-9.516C10.035,-14.737 19.146,-21.412 28.552,-27.623C48.556,-40.485 68.6,-53.284 88.518,-66.277C91.408,-68.162 93.293,-68.346 96.249,-66.216C118.527,-50.158 140.965,-34.321 163.36,-18.425C164.792,-17.409 166.285,-16.48 168.485,-15.022C168.485,-26.566 168.701,-37.322 168.375,-48.061C168.251,-52.149 169.587,-52.963 173.346,-52.852C182.335,-52.587 191.354,-52.435 200.326,-52.902C205.035,-53.147 205.63,-51.464 205.581,-47.36C205.364,-29.035 205.573,-10.707 205.409,7.618C205.378,10.975 206.383,13.01 209.151,14.956C229.573,29.308 249.873,43.836 270.945,58.83L144.802,58.83C149.658,52.696 154.208,46.916 158.798,41.168C160.057,39.588 161.896,40.254 163.485,40.249C178.278,40.204 193.072,40.222 208.187,40.222C207.583,38.354 206.093,37.873 204.997,37.093C168.767,11.357 132.49,-14.315 96.323,-40.14C93.463,-42.181 91.514,-42.283 88.54,-40.439C56.456,-20.535 24.267,-0.802 -7.845,19.058C-10.36,20.613 -12.823,21.327 -15.779,21.283C-25.436,21.142 -35.095,21.23 -44.828,21.23C-44.973,19.316 -43.273,19.201 -42.347,18.595C-29.673,10.312 -16.94,2.124 -4.245,-6.127C-2.732,-7.112 -0.973,-7.836 0,-9.516" style="fill:rgb(218,3,3);"/>
            </g>
            <g transform="matrix(1,0,0,1,449.615,557)">
                <path d="M0,56.125C18.459,56.125 36.239,56.247 54.013,56.02C57.564,55.975 58.436,56.806 58.389,60.314C58.246,70.925 58.408,70.928 47.859,70.928C22.863,70.928 -2.133,70.927 -27.128,70.927L-32.338,70.927C-28.693,67.131 -25.572,63.773 -22.336,60.529C1.431,36.696 25.208,12.873 49.016,-10.919C53.569,-15.468 64.103,-15.484 68.632,-11.049C72.083,-7.668 75.501,-4.251 78.887,-0.804C101.983,22.711 125.068,46.238 148.218,69.823C146.562,71.609 144.799,70.871 143.301,70.877C125.805,70.953 108.308,70.88 90.812,70.977C88.136,70.991 86.197,70.29 84.298,68.308C69.316,52.681 54.214,37.17 39.169,21.603C37.787,20.171 36.895,18.598 34.641,20.928C23.413,32.525 12.012,43.954 0,56.125" style="fill:rgb(218,3,3);"/>
            </g>
            <g transform="matrix(1,0,0,1,350.259,542.907)">
                <path d="M0,85.019C-12.492,85.019 -24.985,84.925 -37.475,85.086C-40.479,85.125 -41.746,84.525 -41.222,81.267C-40.648,77.699 -42.801,72.746 -40.497,70.811C-38.331,68.992 -33.567,70.199 -29.947,70.187C-19.953,70.152 -9.959,70.208 0.034,70.165C10.27,70.121 14.165,66.98 14.972,56.905C16.331,39.964 15.694,22.96 15.594,5.989C15.566,1.3 16.48,-0.106 21.463,0.034C36.275,0.451 51.109,0.336 65.928,0.085C69.264,0.03 69.75,1.125 69.733,3.963C69.641,19.953 69.915,35.947 69.629,51.931C69.273,71.893 55.886,84.887 35.977,85.005C23.985,85.077 11.993,85.018 0,85.019" style="fill:rgb(218,3,3);"/>
            </g>
            <g transform="matrix(1,0,0,1,753.853,627.78)">
                <path d="M0,-83.829C-11.228,-77.83 -22.459,-71.836 -33.685,-65.834C-39.833,-62.546 -45.919,-59.133 -52.144,-55.998C-55.215,-54.452 -56.177,-53.61 -52.854,-50.865C-36.305,-37.196 -19.954,-23.285 -3.582,-9.403C-0.322,-6.639 2.727,-3.624 5.93,-0.672C4.607,0.757 3.207,0.138 2.003,0.142C-12.981,0.185 -27.968,0.087 -42.952,0.202C-46.132,0.228 -48.704,-0.53 -51.109,-2.64C-64.873,-14.704 -78.757,-26.631 -92.499,-38.72C-98.842,-44.3 -97.798,-52.581 -90.421,-56.509C-73.728,-65.396 -56.997,-74.212 -40.34,-83.166C-38.479,-84.166 -36.682,-84.586 -34.65,-84.582C-23.181,-84.562 -11.71,-84.573 -0.238,-84.573C-0.16,-84.325 -0.08,-84.077 0,-83.829" style="fill:rgb(218,3,3);"/>
            </g>
            <g transform="matrix(1,0,0,1,651.912,585.672)">
                <path d="M0,0.45C0,12.938 -0.109,25.428 0.07,37.913C0.121,41.398 -0.959,42.383 -4.431,42.331C-17.748,42.132 -31.072,42.163 -44.391,42.308C-47.67,42.345 -48.997,41.673 -48.972,37.974C-48.803,12.833 -48.807,-12.31 -48.97,-37.45C-48.993,-41.069 -47.859,-41.826 -44.473,-41.785C-31.154,-41.624 -17.831,-41.652 -4.515,-41.875C-1.087,-41.933 0.082,-41.049 0.031,-37.511C-0.152,-24.86 -0.041,-12.203 -0.041,0.45L0,0.45Z" style="fill:rgb(218,3,3);"/>
            </g>
            <g transform="matrix(1,0,0,1,190.505,584.951)">
                <path d="M0,9.975C-27.481,9.975 -54.963,9.877 -82.443,10.078C-86.715,10.109 -87.626,8.799 -87.678,4.756C-87.732,0.587 -86.223,-0.103 -82.503,-0.095C-27.54,0.008 27.422,0.027 82.385,-0.123C86.653,-0.134 87.568,1.152 87.62,5.194C87.673,9.364 86.165,10.068 82.443,10.049C54.963,9.913 27.481,9.975 0,9.975" style="fill:rgb(204,204,204);"/>
            </g>
            <g transform="matrix(1,0,0,1,838.867,584.954)">
                <path d="M0,9.972C-25.315,9.972 -50.632,9.865 -75.945,10.075C-80.275,10.111 -81.031,8.657 -81.122,4.699C-81.22,0.424 -79.512,-0.098 -75.889,-0.092C-24.925,0.003 26.038,0.029 77.001,-0.127C81.328,-0.139 82.087,1.288 82.178,5.246C82.275,9.521 80.568,10.057 76.944,10.038C51.296,9.913 25.647,9.972 0,9.972" style="fill:rgb(204,204,204);"/>
            </g>
        </g>
    </g>
</svg>
