<svg xmlns="http://www.w3.org/2000/svg" height="400" width="400">
    <path d="M0 400h400V-.022H0zm0 0" fill="#00513a"/>
    <path d="M116.345-.022h10.942l147.524 39.526c57.191 15.318 86.407 32.893 107.456 63.215 8.664 12.995 14.665 28.11 17.733 44.264v51.98c-.7 3.902-1.58 7.828-2.617 11.73-20.598 76.932-87.829 112.172-169.927 92.138l-37.247-9.069L161.737 400H8.98zm0 0" fill="#fffacc" stroke="#fffacc" stroke-width=".601" stroke-miterlimit="22.926"/>
    <path d="M160.474 350.57v-95.364c0-7.626.496-9.047 4.286-9.047 2.392 0 6.204.948 17.643 5.234 20.033 7.152 31.45 9.543 44.805 9.543 52.905 0 94.845-40.045 94.845-90.558 0-55.77-40.97-91.055-106.757-91.055-6.678 0-20.981.474-35.759.97-15.724.474-31.45.948-45.279.948-15.25 0-25.245-.474-39.548-.948-11.912-.496-19.064-.97-21.456-.97-8.099 0-10.964 1.918-10.964 7.152 0 5.73 3.813 7.625 18.116 8.596 9.52.473 17.8 4.173 21.455 9.52 3.497 5.144 3.813 7.626 3.813 26.69V350.57c-.022 19.063-.338 21.545-3.835 26.689-3.633 5.347-12.318 7.716-22.29 8.596C65.787 387.095 60.056 400 60.214 400h145.72c.135 0-5.573-11.98-19.335-13.22-9.972-.88-18.658-4.174-22.313-9.521-3.496-5.144-3.812-7.626-3.812-26.69" fill="#fffacc"/>
    <path d="M160.474 350.57v-95.364c0-7.626.496-9.047 4.286-9.047 2.392 0 6.204.948 17.643 5.234 20.033 7.152 31.45 9.543 44.805 9.543 52.905 0 94.845-40.045 94.845-90.558 0-55.77-40.97-91.055-106.757-91.055-6.678 0-20.981.474-35.759.97-15.724.474-31.45.948-45.279.948-15.25 0-25.245-.474-39.548-.948-11.912-.496-19.064-.97-21.456-.97-8.099 0-10.964 1.918-10.964 7.152 0 5.73 3.813 7.625 18.116 8.596 9.52.473 17.8 4.173 21.455 9.52 3.497 5.144 3.813 7.626 3.813 26.69V350.57c-.022 19.063-.338 21.545-3.835 26.689-3.633 5.347-12.318 7.716-22.29 8.596C65.787 387.095 60.056 400 60.214 400h145.72c.135 0-5.573-11.98-19.335-13.22-9.972-.88-18.658-4.174-22.313-9.521-3.496-5.144-3.812-7.626-3.812-26.69zm0 0" fill="none" stroke="#fffacc" stroke-width=".601" stroke-miterlimit="22.926"/>
    <path d="M160.474 350.57v-95.364c0-7.626.496-9.047 4.286-9.047 2.392 0 6.204.948 17.643 5.234 20.033 7.152 31.45 9.543 44.805 9.543 52.905 0 94.845-40.045 94.845-90.558 0-55.77-40.97-91.055-106.757-91.055-6.678 0-20.981.474-35.759.97-15.724.474-31.45.948-45.279.948-15.206 0-25.222-.474-39.458-.948l-4.445 16.56c5.099 1.67 9.205 4.377 11.506 7.738 3.497 5.144 3.813 7.626 3.813 26.69V350.57c-.022 19.063-.338 21.545-3.835 26.689-3.633 5.347-12.318 7.716-22.29 8.596-12.86 1.15-18.68 12.633-19.29 14.145h101.478l5.302-19.808a13.444 13.444 0 0 1-2.753-2.933c-3.496-5.144-3.812-7.626-3.812-26.69" fill="#8a2100"/>
    <path d="M160.474 350.57v-95.364c0-7.626.496-9.047 4.286-9.047 2.392 0 6.204.948 17.643 5.234 20.033 7.152 31.45 9.543 44.805 9.543 52.905 0 94.845-40.045 94.845-90.558 0-55.77-40.97-91.055-106.757-91.055-6.678 0-20.981.474-35.759.97-15.724.474-31.45.948-45.279.948-15.206 0-25.222-.474-39.458-.948l-4.445 16.56c5.099 1.67 9.205 4.377 11.506 7.738 3.497 5.144 3.813 7.626 3.813 26.69V350.57c-.022 19.063-.338 21.545-3.835 26.689-3.633 5.347-12.318 7.716-22.29 8.596-12.86 1.15-18.68 12.633-19.29 14.145h101.478l5.302-19.808a13.444 13.444 0 0 1-2.753-2.933c-3.496-5.144-3.812-7.626-3.812-26.69zm0 0" fill="none" stroke="#871e00" stroke-width=".399" stroke-miterlimit="22.926"/>
    <path d="M160.474 132.724c0-31.946 6.678-40.519 32.42-40.519 40.518 0 71.494 32.894 71.494 75.781 0 41.467-28.607 71.495-67.682 71.495-10.49 0-22.403-2.369-30.028-5.708-5.257-1.917-6.204-3.812-6.204-12.882zm0 0" fill="#fffacc" stroke="#fffacc" stroke-width=".601" stroke-miterlimit="22.926"/>
</svg>
